<?xml version="1.0" encoding="UTF-8"?>
<svg width="83px" height="52px" viewBox="0 0 83 52" version="1.1" xmlns="http://www.w3.org/2000/svg" xmlns:xlink="http://www.w3.org/1999/xlink">
    <!-- Generator: Sketch 54.1 (76490) - https://sketchapp.com -->
    <title>logo</title>
    <desc>Created with Sketch.</desc>
    <g id="Page-2" stroke="none" stroke-width="1" fill="none" fill-rule="evenodd">
        <g id="Behran_V0" transform="translate(-1106.000000, -21.000000)" fill="#FFFFFF" fill-rule="nonzero">
            <g id="intro">
                <g id="header">
                    <g id="logo" transform="translate(1106.000000, 21.000000)">
                        <path d="M40.8880734,0 L42.0837957,0 C47.4441644,0.0579681634 52.8070809,0.728011935 57.9857134,2.1337399 C61.6679946,3.13454319 65.2602569,4.50361481 68.6223767,6.32023476 C71.2210345,7.72852014 73.6838148,9.40703946 75.8612523,11.4137609 C78.0955885,13.4750406 80.0335419,15.9020312 81.3286246,18.6691585 C82.6780584,21.524943 83.2648795,24.7541107 82.8878193,27.8988836 C82.5184023,31.1544779 81.1443407,34.2378728 79.2080859,36.8541124 C77.4739488,39.2094952 75.3126468,41.2247414 72.9560208,42.9407695 C70.2087469,44.9347038 67.1897179,46.5330907 64.0509469,47.8083903 C56.8001819,50.7494221 48.9439127,51.9812456 41.1487884,52 C36.8584552,51.9266873 32.5638759,51.5371072 28.3618631,50.6479778 C24.3330942,49.8057345 20.3824549,48.5534517 16.6509181,46.8067345 C12.5694967,44.8861129 8.71057469,42.3679077 5.61426537,39.0517877 C3.30859345,36.5787636 1.45301587,33.6164199 0.574058066,30.3241692 C-0.256493365,27.2723159 -0.181760721,23.9843276 0.771929726,20.9699831 C1.9718982,17.1287398 4.46100479,13.8083575 7.42568275,11.1494943 C9.77721334,9.0396236 12.4395638,7.29972623 15.2445856,5.86245676 C19.1383262,3.87107985 23.3097666,2.45341727 27.5729242,1.50120494 C31.941387,0.52427089 36.4143055,0.0520008525 40.8880734,0 Z M37.932737,2.97683569 C33.1600386,3.28969327 28.4153649,4.22570862 23.9271601,5.89399826 C19.7845938,7.44294169 15.8271606,9.62186265 12.549115,12.6225676 C9.89695542,15.0538206 7.70338246,18.0928868 6.6732609,21.5777964 C5.83336789,24.3781701 5.81553397,27.4180888 6.62315606,30.2269873 C7.42653199,33.0665749 9.01714838,35.6367809 10.9975634,37.8003574 C13.0781882,40.0764603 15.5774856,41.9408187 18.2517253,43.4573682 C21.1043043,45.0710995 24.1649458,46.2952507 27.31136,47.1929048 C31.651798,48.4272857 36.1595352,49.0427712 40.6689709,49.110969 C48.0309855,49.2115608 55.4847175,47.9013099 62.1877262,44.7778488 C65.1965643,43.3627437 68.0499926,41.5691405 70.5008836,39.3075296 C72.7623953,37.2189708 74.6816655,34.7024705 75.8289814,31.8245217 C77.108778,28.6678142 77.326182,25.0857227 76.388627,21.8071116 C75.5436386,18.7808325 73.8069539,16.0631486 71.6524457,13.8058001 C69.4987868,11.5493041 66.9383445,9.71051984 64.207206,8.22295447 C60.9520898,6.45407302 57.4430525,5.17536353 53.8490917,4.30243119 C48.6526252,3.04759094 43.2642318,2.63584649 37.932737,2.97683569 Z" id="Shape"></path>
                        <g id="Group" transform="translate(12.388060, 16.095238)">
                            <path d="M20.9232205,0.298034286 C22.6408426,0.298034286 24.3593143,0.297192381 26.0769365,0.29887619 C26.0752375,3.12683429 26.0726891,5.95479238 26.0777859,8.78359238 C26.0616461,8.90314286 26.1185603,9.06647238 25.9936887,9.14561143 C24.3024,10.5802171 22.617907,12.0215581 20.922371,13.4527962 C20.9249194,9.06815619 20.9240699,4.68351619 20.9232205,0.298034286 Z" id="Path"></path>
                            <path d="M10.3643463,0.539660952 C11.4762985,0.260990476 12.6893373,1.02038857 12.9645646,2.11233905 C13.1752324,2.87426286 12.9229407,3.74310857 12.3240665,4.26761524 C11.7795582,4.78622857 10.9521774,4.97902476 10.229281,4.76518095 C9.28552324,4.50587429 8.5796162,3.55957333 8.64077783,2.58464762 C8.65351983,1.61645714 9.41294328,0.736666667 10.3643463,0.539660952 Z" id="Path"></path>
                            <path d="M32.1327864,8.07639238 C34.0619258,7.04169143 36.343594,6.66367619 38.5105842,6.99707048 C39.9062584,7.22185905 41.3223198,7.8137181 42.1981203,8.95786667 C42.7256392,9.61792 42.9677373,10.4505638 43.0484367,11.2781562 C44.3591642,10.1281143 45.6495045,8.95534095 46.9644793,7.81035048 C48.1979053,7.05095238 49.7209996,7.05432 51.1260179,7.05768762 C53.8969791,7.08210286 56.6687898,7.06189714 59.4406004,7.06779048 C59.4406004,8.57648381 59.4406004,10.0851771 59.4406004,11.5930286 C56.3553365,11.5947124 53.2700725,11.5736648 50.185658,11.5829257 C46.741919,14.5910514 43.3432017,17.653901 39.9147531,20.6813905 C38.6796281,19.5759695 37.4334601,18.4823352 36.2000341,17.3727048 C38.3534328,15.443059 40.5255198,13.5319352 42.6806175,11.6039733 C40.2316043,11.59808 37.7834405,11.5921867 35.3344273,11.5963962 C31.9340111,14.6323048 28.5200034,17.6522171 25.1170388,20.6847581 C23.8827633,19.5742857 22.6365953,18.4781257 21.397223,17.3735467 C24.1698832,14.9067657 26.9442422,12.4433524 29.7177518,9.97657143 C30.4933151,9.30809905 31.2162115,8.55712 32.1327864,8.07639238 Z" id="Path"></path>
                            <path d="M6.10851684,7.18986667 C7.1813936,7.06273905 8.26531343,7.08210286 9.34328699,7.06779048 C9.34328699,8.50239619 9.34413646,9.93616 9.34328699,11.3716076 C8.40037868,11.3926552 7.42688955,11.3084648 6.51711045,11.607341 C5.79761194,11.8354971 5.25820043,12.4618743 5.04158635,13.1657067 C4.83686482,13.8493333 5.08490917,14.6070476 5.57590107,15.1105067 C6.09577484,15.61144 6.81612281,15.8985295 7.54156759,15.8909524 C9.29826525,15.8884267 11.0558124,15.8917943 12.8133595,15.8884267 C12.8193058,12.9493371 12.8133595,10.0085638 12.8150584,7.06863238 C14.471519,7.06863238 16.1271301,7.07536762 17.7835906,7.08210286 C17.7827412,10.2653448 17.8439028,13.4502705 17.7708486,16.6326705 C17.7428162,17.6901029 17.2628674,18.7450095 16.4354866,19.4235848 C15.7482678,20.0061829 14.8741663,20.3185295 13.9983659,20.4953295 C12.4124111,20.80936 10.7848324,20.7420076 9.17849041,20.6923352 C7.98923667,20.6047771 6.77704733,20.7142248 5.61157868,20.4136648 C4.11651684,20.04912 2.64608955,19.3385524 1.64541748,18.1497829 C0.611616205,16.7842133 -0.033978678,15.0886171 0.0246345416,13.3677638 C0.0603121535,12.0097714 0.565744989,10.6644076 1.46363156,9.63307429 C2.62740128,8.26918857 4.35351812,7.47190476 6.10851684,7.18986667 Z" id="Path"></path>
                            <path d="M52.8665757,13.9520457 C53.9470977,13.7786133 55.0420606,14.5556914 55.2943522,15.5971276 C55.5109663,16.3725219 55.2212981,17.2497867 54.5969399,17.759981 C54.0320443,18.2567048 53.1978678,18.4301371 52.4817672,18.1868267 C51.5397083,17.8938438 50.8575864,16.9138667 50.9714149,15.9322057 C51.0427701,14.9412838 51.8743983,14.0800152 52.8665757,13.9520457 Z" id="Path"></path>
                        </g>
                    </g>
                </g>
            </g>
        </g>
    </g>
</svg>