<svg xmlns="http://www.w3.org/2000/svg" xmlns:xlink="http://www.w3.org/1999/xlink" viewBox="0 0 1580 1302.53"><defs><style>.a{fill:#49b0e3;}.b{fill:#353033;}.c{fill:#f5bb97;}.d{fill:none;}.e{fill:#6355a4;}.f{fill:#f5a492;}.ay,.g{fill:#99d4c2;}.h{fill:#762416;}.i{fill:#751817;}.j{fill:#cde1e9;}.k{fill:#35273b;}.l{fill:#434143;}.m{fill:#434244;}.n{fill:#9fc2bd;}.o{fill:#3d243b;}.ba,.p{fill:#487abe;}.q{fill:#5a5b5c;}.r{fill:#c0ddd4;}.s{clip-path:url(#a);}.t{fill:#55c9eb;}.u{fill:#ddedea;}.v{fill:#ef4435;}.w{opacity:0.07;}.bb,.bc,.x{fill:#fff;}.y{clip-path:url(#b);}.z{fill:#565455;}.aa{clip-path:url(#c);}.ab{fill:#b8dfc7;}.ac{clip-path:url(#d);}.ad{clip-path:url(#e);}.ae{fill:#6356a4;}.af{fill:#7368af;}.ag{clip-path:url(#f);}.ah,.az{fill:#9dcb3b;}.ai{fill:#ffdb77;}.aj{clip-path:url(#g);}.ak{fill:#944221;}.al{fill:#c67a54;}.am{fill:#631a2e;}.an{clip-path:url(#h);}.ao{clip-path:url(#i);}.ap{clip-path:url(#j);}.aq{fill:#dd624c;}.ar{clip-path:url(#k);}.as{clip-path:url(#l);}.at{clip-path:url(#m);}.au{fill:#354039;}.av{clip-path:url(#n);}.aw{clip-path:url(#o);}.ax{fill:#f5bb96;}.ay,.az,.ba{fill-rule:evenodd;}.bb{opacity:0.2;}.bc{opacity:0.3;}</style><clipPath id="a"><path class="a" d="M1187.89,687,1075.34,344.29a30,30,0,0,0-28.51-20.64H254.4a30,30,0,0,0-29.52,24.63L132.49,856.06A30,30,0,0,0,162,891.43H231.4a94.3,94.3,0,0,1,185,0H446.9V333.65H554.67a30,30,0,0,1,28.51,20.66l104.57,319V891.43h60.41a94.3,94.3,0,0,1,185,0h545.1V793.29a30,30,0,0,0-21.69-28.82Zm-771.76-13.7H196.81l43.44-313.77A30,30,0,0,1,270,333.65H416.13Zm311.84,0L625.33,359.88a20,20,0,0,1,19-26.23h381.85a30,30,0,0,1,28.46,20.52L1161,673.31Z"/></clipPath><clipPath id="b"><path class="b" d="M1151.47,880.72l-18.94-75a5,5,0,0,1,4.85-6.22H1310a5,5,0,0,1,4.85,6.22l-18.94,75a5,5,0,0,1-4.85,3.77H1156.32A5,5,0,0,1,1151.47,880.72Z"/></clipPath><clipPath id="c"><path class="g" d="M731.6,668.31,652.49,426.75l30.26-88.1h344.16a24,24,0,0,1,22.76,16.41L1154.1,668.31Z"/></clipPath><clipPath id="d"><polygon class="g" points="459.9 350.86 459.9 668.3 680.85 668.3 576.79 350.86 459.9 350.86"/></clipPath><clipPath id="e"><path class="g" d="M242.76,377.86,202.55,668.31H416.13V350.86H273.75A31.28,31.28,0,0,0,242.76,377.86Z"/></clipPath><clipPath id="f"><polygon class="d" points="576.57 350.61 680.48 667.61 459.84 667.61 459.84 350.61 576.57 350.61"/></clipPath><clipPath id="g"><path class="f" d="M833.39,653.11a32.25,32.25,0,0,1-4.32.47l-10.71.45a32.5,32.5,0,0,1-2.72-64.95l10.71-.45a32.5,32.5,0,0,1,7,64.48Z"/></clipPath><clipPath id="h"><path class="h" d="M535,475.74l-21.65,12.5a7,7,0,0,1-7-12.12L528,463.62a7,7,0,1,1,7,12.12Z"/></clipPath><clipPath id="i"><path class="h" d="M576.67,464.93l-24.62,4.34a7,7,0,1,1-2.43-13.79l24.62-4.34a7,7,0,0,1,2.43,13.79Z"/></clipPath><clipPath id="j"><path class="i" d="M560.47,546.61a17,17,0,0,0,17-17h-34A17,17,0,0,0,560.47,546.61Z"/></clipPath><clipPath id="k"><path class="c" d="M488.53,508.25c-6.16,2.24-9.08,9.74-6.53,16.74s9.61,10.87,15.77,8.63l3.54-1.29L492.08,507Z"/></clipPath><clipPath id="l"><path class="c" d="M608.65,464.53c6.16-2.24,13.22,1.62,15.77,8.62s-.38,14.51-6.54,16.75l-3.54,1.29-9.23-25.37Z"/></clipPath><clipPath id="m"><path class="d" d="M1154.36,668.61H731.41L652.22,426.8l30.29-88.19h340.41a29.74,29.74,0,0,1,28.21,20.33Z"/></clipPath><clipPath id="n"><path class="e" d="M851.69,537.66H767.87a33.15,33.15,0,0,1-31.63-23.24h0a33.15,33.15,0,0,1,31.63-43h83.82a33.15,33.15,0,0,1,31.63,23.23h0A33.15,33.15,0,0,1,851.69,537.66Z"/></clipPath><clipPath id="o"><path class="f" d="M871.78,672.71a32.4,32.4,0,0,1-4.33.46l-10.71.45A32.5,32.5,0,1,1,854,608.68l10.7-.45a32.51,32.51,0,0,1,7,64.48Z"/></clipPath></defs><title>travel</title><path class="j" d="M1580,1010h0a32.5,32.5,0,0,0-32.5-32.5H32.5A32.5,32.5,0,0,0,0,1010H0a32.5,32.5,0,0,0,32.5,32.5h206A32.5,32.5,0,0,1,271,1075h0a32.5,32.5,0,0,1-32.5,32.5H32.5A32.5,32.5,0,0,0,0,1140H0a32.5,32.5,0,0,0,32.5,32.5H515a32.5,32.5,0,0,1,32.5,32.5h0a32.5,32.5,0,0,1-32.5,32.5H382.5A32.5,32.5,0,0,0,350,1270h0a32.5,32.5,0,0,0,32.5,32.5h595A32.5,32.5,0,0,0,1010,1270h0a32.5,32.5,0,0,0-32.5-32.5H720a32.51,32.51,0,0,1-32.5-32.5h0a32.51,32.51,0,0,1,32.5-32.5H1547.5A32.5,32.5,0,0,0,1580,1140h0a32.5,32.5,0,0,0-32.5-32.5h-137A32.5,32.5,0,0,1,1378,1075h0a32.5,32.5,0,0,1,32.5-32.5h137A32.5,32.5,0,0,0,1580,1010Zm-374.5,97.5h-472A32.5,32.5,0,0,1,701,1075h0a32.5,32.5,0,0,1,32.5-32.5h472A32.5,32.5,0,0,1,1238,1075h0A32.5,32.5,0,0,1,1205.5,1107.53Z"/><rect class="j" x="1071" y="1237.53" width="180" height="65" rx="32.5"/><path class="k" d="M761.38,821.21H718.44v15.45c-21.43,17-35.59,46.26-35.59,79.55s14.16,62.58,35.59,79.54v15.46h42.94c43.37,0,78.53-42.53,78.53-95S804.75,821.21,761.38,821.21Z"/><ellipse class="l" cx="718.44" cy="916.21" rx="78.53" ry="95"/><ellipse class="m" cx="718.44" cy="916.21" rx="48.99" ry="66.11"/><path class="n" d="M718.44,977.53c-11.13,0-21.89-6.24-30.28-17.57-8.66-11.68-13.63-27.63-13.63-43.75s5-32.07,13.63-43.75c8.39-11.33,19.15-17.57,30.28-17.57s21.89,6.24,30.28,17.57c8.66,11.68,13.62,27.63,13.62,43.75s-5,32.07-13.62,43.75C740.33,971.29,729.57,977.53,718.44,977.53Z"/><ellipse class="o" cx="727.27" cy="916.21" rx="26.8" ry="30.92"/><path class="k" d="M1255.5,821.21h-42.94v15.45c-21.43,17-35.59,46.26-35.59,79.55s14.16,62.58,35.59,79.54v15.46h42.94c43.37,0,78.53-42.53,78.53-95S1298.87,821.21,1255.5,821.21Z"/><ellipse class="l" cx="1212.56" cy="916.21" rx="78.53" ry="95"/><ellipse class="m" cx="1212.56" cy="916.21" rx="48.99" ry="66.11"/><path class="n" d="M1212.56,977.53c-11.14,0-21.89-6.24-30.29-17.57-8.65-11.68-13.62-27.63-13.62-43.75s5-32.07,13.62-43.75c8.4-11.33,19.15-17.57,30.29-17.57s21.88,6.24,30.28,17.57c8.66,11.68,13.62,27.63,13.62,43.75s-5,32.07-13.62,43.75C1234.44,971.29,1223.69,977.53,1212.56,977.53Z"/><ellipse class="o" cx="1221.38" cy="916.21" rx="26.8" ry="30.92"/><path class="p" d="M1458.22,911.43H131.79a30,30,0,0,1-29.55-35.19L195,348.46a30,30,0,0,1,29.55-24.81h822.28a30,30,0,0,1,28.51,20.64L1187.89,687l268.64,77.45a30,30,0,0,1,21.69,28.83v98.14A20,20,0,0,1,1458.22,911.43Z"/><path class="m" d="M368,821.21H325.06v15.45c-21.43,17-35.59,46.26-35.59,79.55s14.16,62.58,35.59,79.54v15.46H368c43.37,0,78.53-42.53,78.53-95S411.37,821.21,368,821.21Z"/><ellipse class="q" cx="325.06" cy="916.21" rx="78.53" ry="95"/><ellipse class="m" cx="325.06" cy="916.21" rx="48.99" ry="66.11"/><path class="r" d="M325.06,977.53c-11.14,0-21.89-6.24-30.29-17.57-8.65-11.68-13.62-27.63-13.62-43.75s5-32.07,13.62-43.75c8.4-11.33,19.15-17.57,30.29-17.57s21.88,6.24,30.28,17.57C364,884.14,369,900.09,369,916.21s-5,32.07-13.62,43.75C346.94,971.29,336.19,977.53,325.06,977.53Z"/><ellipse class="m" cx="333.88" cy="916.21" rx="26.8" ry="30.92"/><path class="m" d="M881.38,821.21H838.44v15.45c-21.43,17-35.59,46.26-35.59,79.55s14.16,62.58,35.59,79.54v15.46h42.94c43.37,0,78.53-42.53,78.53-95S924.75,821.21,881.38,821.21Z"/><ellipse class="q" cx="838.44" cy="916.21" rx="78.53" ry="95"/><ellipse class="m" cx="838.44" cy="916.21" rx="48.99" ry="66.11"/><path class="r" d="M838.44,977.53c-11.13,0-21.89-6.24-30.28-17.57-8.66-11.68-13.63-27.63-13.63-43.75s5-32.07,13.63-43.75c8.39-11.33,19.15-17.57,30.28-17.57s21.89,6.24,30.28,17.57c8.66,11.68,13.62,27.63,13.62,43.75s-5,32.07-13.62,43.75C860.33,971.29,849.57,977.53,838.44,977.53Z"/><ellipse class="m" cx="847.27" cy="916.21" rx="26.8" ry="30.92"/><path class="a" d="M1187.89,687,1075.34,344.29a30,30,0,0,0-28.51-20.64H254.4a30,30,0,0,0-29.52,24.63L132.49,856.06A30,30,0,0,0,162,891.43H231.4a94.3,94.3,0,0,1,185,0H446.9V333.65H554.67a30,30,0,0,1,28.51,20.66l104.57,319V891.43h60.41a94.3,94.3,0,0,1,185,0h545.1V793.29a30,30,0,0,0-21.69-28.82Zm-771.76-13.7H196.81l43.44-313.77A30,30,0,0,1,270,333.65H416.13Zm311.84,0L625.33,359.88a20,20,0,0,1,19-26.23h381.85a30,30,0,0,1,28.46,20.52L1161,673.31Z"/><g class="s"><path class="t" d="M981.3,768.27h496.92a0,0,0,0,1,0,0v16a0,0,0,0,1,0,0H981.3a8,8,0,0,1-8-8v0A8,8,0,0,1,981.3,768.27Z"/><polygon class="t" points="1397.84 758.76 973.61 758.76 757.61 696.85 1181.84 696.85 1397.84 758.76"/><path class="p" d="M1114.24,881.69H996c-6,0-10.88-4.23-10.88-9.45V830.69c0-18.78,17.53-34,39.16-34h70.84c5,0,9.33,2.94,10.55,7.14l19.12,66.11C1126.52,875.91,1121.32,881.69,1114.24,881.69Z"/><path class="u" d="M992.74,870.36V831.63c0-15.64,14.6-28.33,32.62-28.33h68.07a5.35,5.35,0,0,1,5.27,3.57l18,62.34c.86,3-1.74,5.87-5.28,5.87H998.17C995.17,875.08,992.74,873,992.74,870.36Z"/><path class="v" d="M992.74,870.36V831.63c0-15.64,14.6-28.33,32.62-28.33h7.05l20.77,71.78h-55C995.17,875.08,992.74,873,992.74,870.36Z"/><path class="w" d="M992.74,847.94v22.42c0,2.6,2.43,4.72,5.43,4.72h120.26l-7.85-27.14Z"/><rect class="x" x="1045.94" y="810.87" width="43.5" height="9.44" rx="4.72"/><path class="p" d="M1331.46,881.69h118.25c6,0,10.87-4.23,10.87-9.45V829.86c0-18.32-17.1-33.17-38.2-33.17h-71.8c-5,0-9.33,2.94-10.54,7.14l-19.13,66.11C1319.19,875.91,1324.38,881.69,1331.46,881.69Z"/><path class="u" d="M1453,870.36v-39c0-15.5-14.47-28.06-32.32-28.06h-68.37a5.34,5.34,0,0,0-5.27,3.57l-18,62.34c-.87,3,1.73,5.87,5.27,5.87h113.28C1450.53,875.08,1453,873,1453,870.36Z"/><path class="v" d="M1453,870.36V831.63c0-15.64-14.61-28.33-32.63-28.33h-7l-20.76,71.78h55C1450.53,875.08,1453,873,1453,870.36Z"/><path class="w" d="M1453,847.94v22.42c0,2.6-2.44,4.72-5.44,4.72H1334.25c-3.54,0-6.14-2.89-5.27-5.87l6.15-21.27Z"/><rect class="x" x="1356.26" y="810.87" width="43.5" height="9.44" rx="4.72" transform="translate(2756.03 1631.19) rotate(180)"/><path class="p" d="M1292.61,891.49H1154.76a10,10,0,0,1-9.7-7.55l-20-79a10,10,0,0,1,9.7-12.44h177.75a10,10,0,0,1,9.69,12.44l-20,79A10,10,0,0,1,1292.61,891.49Z"/><path class="b" d="M1151.47,880.72l-18.94-75a5,5,0,0,1,4.85-6.22H1310a5,5,0,0,1,4.85,6.22l-18.94,75a5,5,0,0,1-4.85,3.77H1156.32A5,5,0,0,1,1151.47,880.72Z"/><g class="y"><rect class="z" x="1130.68" y="799.46" width="186" height="5"/><rect class="z" x="1130.68" y="810.89" width="186" height="5"/><rect class="z" x="1130.68" y="822.32" width="186" height="5"/><rect class="z" x="1130.68" y="833.76" width="186" height="5"/><rect class="z" x="1130.68" y="845.19" width="186" height="5"/><rect class="z" x="1130.68" y="856.63" width="186" height="5"/><rect class="z" x="1130.68" y="868.06" width="186" height="5"/><rect class="z" x="1130.68" y="879.49" width="186" height="5"/></g></g><path class="g" d="M731.6,668.31,652.49,426.75l30.26-88.1h344.16a24,24,0,0,1,22.76,16.41L1154.1,668.31Z"/><g class="aa"><polygon class="ab" points="864.18 678.62 730.74 678.62 616.74 328.33 750.18 328.33 864.18 678.62"/><polygon class="ab" points="1049.89 678.62 976.45 678.62 862.45 328.33 935.89 328.33 1049.89 678.62"/><rect class="p" x="933.19" y="314.52" width="57.96" height="386.27"/></g><polygon class="g" points="459.9 350.86 459.9 668.3 680.85 668.3 576.79 350.86 459.9 350.86"/><g class="ac"><polygon class="ab" points="575.62 678.62 442.18 678.62 328.18 328.33 461.62 328.33 575.62 678.62"/></g><path class="g" d="M242.76,377.86,202.55,668.31H416.13V350.86H273.75A31.28,31.28,0,0,0,242.76,377.86Z"/><g class="ad"><polygon class="ab" points="575.62 678.62 442.18 678.62 328.18 328.33 461.62 328.33 575.62 678.62"/><path class="ae" d="M229.44,686.21l14.61-98.71a30,30,0,0,1,29.68-25.6H450.89V686.21Z"/><path class="af" d="M259.44,686.21l14.61-98.71a30,30,0,0,1,29.68-25.6H480.89V686.21Z"/></g><polygon class="a" points="451.9 891.43 451.9 673.31 677.75 674.12 677.75 891.43 451.9 891.43"/><rect class="t" x="196.68" y="686.21" width="220" height="15" rx="7.5"/><rect class="t" x="461.9" y="686.21" width="208.85" height="15" rx="7.5"/><rect class="p" x="461.9" y="716.21" width="50" height="15" rx="7.5"/><path class="t" d="M416.13,350.86h0a15,15,0,0,1,15,15V653.61a15,15,0,0,1-15,15h0a0,0,0,0,1,0,0V350.86A0,0,0,0,1,416.13,350.86Z"/><g class="ag"><path class="e" d="M701,730.71H527.7l-39.35-125A34.36,34.36,0,0,1,521.13,561H622.36a34.35,34.35,0,0,1,32.77,24Z"/><path class="af" d="M558.66,710.71l-37.5-119.17A23.47,23.47,0,0,1,543.55,561H625.4a37.7,37.7,0,0,1,35.9,26.17L701,710.71Z"/><path class="ah" d="M612.09,567.49h0A71.87,71.87,0,0,1,684,639.37V754.21a0,0,0,0,1,0,0H540.22a0,0,0,0,1,0,0V639.37A71.87,71.87,0,0,1,612.09,567.49Z" transform="translate(-189.11 249.2) rotate(-20)"/><path class="ah" d="M548.34,656.61h-85a27.5,27.5,0,0,1,0-55h85a27.5,27.5,0,0,1,0,55Z"/><path class="ah" d="M739,648.83a28.57,28.57,0,0,1-3.43-.21L620.85,634.34a27.5,27.5,0,0,1,6.79-54.58L742.36,594A27.5,27.5,0,0,1,739,648.83Z"/><circle class="ai" cx="738.84" cy="621.61" r="39.99"/><path class="f" d="M804.34,648.61h-65a27.5,27.5,0,0,1,0-55h65a27.5,27.5,0,0,1,0,55Z"/><path class="f" d="M833.39,653.11a32.25,32.25,0,0,1-4.32.47l-10.71.45a32.5,32.5,0,0,1-2.72-64.95l10.71-.45a32.5,32.5,0,0,1,7,64.48Z"/><g class="aj"><path class="c" d="M834.37,640.19a40.15,40.15,0,0,1-5.3.58l-13.11.55a39.79,39.79,0,0,1-3.33-79.51l13.11-.55a39.79,39.79,0,0,1,8.63,78.93Z"/></g><path class="ai" d="M605.65,605.25l18.6,1.8c4.91-6.88,7.15-14.7,5.78-22.5-3.43-19.45-28-31.36-54.9-26.62s-45.92,24.34-42.49,43.79,28,31.36,54.9,26.61a64.19,64.19,0,0,0,23.52-9Z"/><path class="f" d="M584.51,612.58a27.5,27.5,0,0,1-25.84-18.1l-15.66-43a27.5,27.5,0,0,1,51.68-18.81l15.66,43a27.52,27.52,0,0,1-25.84,36.91Z"/><path class="h" d="M491.82,427.24H616.73a0,0,0,0,1,0,0v98.43a52,52,0,0,1-52,52H546.86a55,55,0,0,1-55-55V427.24A0,0,0,0,1,491.82,427.24Z" transform="translate(-138.43 219.88) rotate(-20)"/><path class="ak" d="M482.24,432.86h89a53.8,53.8,0,0,1,53.8,53.8V491a53.8,53.8,0,0,1-53.8,53.8h-89a8.68,8.68,0,0,1-8.68-8.68v-94.6A8.68,8.68,0,0,1,482.24,432.86Z" transform="matrix(0.34, 0.94, -0.94, 0.34, 820.79, -194.54)"/><path class="c" d="M488.68,417.54h77.46A27.56,27.56,0,0,1,593.7,445.1v42.84a27.56,27.56,0,0,1-27.56,27.56H488.68a0,0,0,0,1,0,0v-98A0,0,0,0,1,488.68,417.54Z" transform="translate(794.47 -201.59) rotate(70)"/><circle class="h" cx="512.84" cy="429.61" r="32.99"/><circle class="h" cx="540.84" cy="419.61" r="26.99"/><circle class="ak" cx="485.84" cy="447.61" r="21.99"/><circle class="ak" cx="569.34" cy="416.11" r="20.49"/><circle class="ak" cx="539.84" cy="415.61" r="26.99"/><circle class="ak" cx="511.84" cy="426.61" r="33"/><path class="al" d="M555.25,412.72a3.49,3.49,0,0,1-3.29-2.3,13.32,13.32,0,0,0-17.05-7.95,3.5,3.5,0,1,1-2.39-6.58,20.3,20.3,0,0,1,26,12.13,3.5,3.5,0,0,1-2.09,4.49A3.56,3.56,0,0,1,555.25,412.72Z"/><path class="al" d="M493.59,415.08a3.5,3.5,0,0,1-2.67-5.75,26.41,26.41,0,0,1,37.16-3.25,3.5,3.5,0,1,1-4.5,5.36,19.4,19.4,0,0,0-27.3,2.39A3.52,3.52,0,0,1,493.59,415.08Z"/><rect class="am" x="523.01" y="485.54" width="12.75" height="20" rx="5.8" transform="translate(-137.56 210.94) rotate(-20)"/><rect class="f" x="545.95" y="487.86" width="17.78" height="32.31" rx="8.89" transform="translate(-138.92 220.16) rotate(-20)"/><rect class="am" x="562.71" y="471.09" width="12.75" height="20" rx="5.8" transform="translate(-130.22 223.65) rotate(-20)"/><path class="h" d="M535,475.74l-21.65,12.5a7,7,0,0,1-7-12.12L528,463.62a7,7,0,1,1,7,12.12Z"/><g class="an"><path class="ak" d="M532.47,471.41l-21.65,12.5a7,7,0,0,1-7-12.12l21.65-12.5a7,7,0,1,1,7,12.12Z"/></g><path class="h" d="M576.67,464.93l-24.62,4.34a7,7,0,1,1-2.43-13.79l24.62-4.34a7,7,0,0,1,2.43,13.79Z"/><g class="ao"><path class="ak" d="M575.8,460l-24.62,4.34a7,7,0,1,1-2.43-13.78l24.62-4.35A7,7,0,0,1,575.8,460Z"/></g><path class="ak" d="M597.34,525.31A33.36,33.36,0,0,0,536,547.65Z"/><rect class="f" x="545.95" y="487.86" width="17.78" height="32.31" rx="8.89" transform="translate(-138.92 220.16) rotate(-20)"/><rect class="c" x="556.43" y="494.96" width="3" height="7" rx="1.5" transform="translate(-136.84 220.88) rotate(-20)"/><path class="i" d="M560.47,546.61a17,17,0,0,0,17-17h-34A17,17,0,0,0,560.47,546.61Z"/><g class="ap"><circle class="aq" cx="549.34" cy="553.11" r="16.5"/><rect class="x" x="548.84" y="524.61" width="23" height="9" rx="4.5"/></g><path class="c" d="M488.53,508.25c-6.16,2.24-9.08,9.74-6.53,16.74s9.61,10.87,15.77,8.63l3.54-1.29L492.08,507Z"/><g class="ar"><path class="f" d="M491.54,512.56c-4,1.44-5.85,6.26-4.21,10.76s6.18,7,10.14,5.55l2.28-.83-5.94-16.31Z"/></g><path class="c" d="M608.65,464.53c6.16-2.24,13.22,1.62,15.77,8.62s-.38,14.51-6.54,16.75l-3.54,1.29-9.23-25.37Z"/><g class="as"><path class="f" d="M609.12,469.76c4-1.44,8.5,1,10.14,5.54s-.24,9.33-4.2,10.77l-2.28.83-5.94-16.31Z"/></g></g><g class="at"><polygon class="au" points="857.58 580.18 794.3 580.18 773.54 513.89 836.82 513.89 857.58 580.18"/><path class="e" d="M964,731.36H790.68l-39.34-125a34.36,34.36,0,0,1,32.77-44.68H885.34a34.36,34.36,0,0,1,32.78,24.05Z"/><path class="af" d="M821.65,711.36,784.14,592.19a23.48,23.48,0,0,1,22.4-30.52h81.85a37.7,37.7,0,0,1,35.9,26.17L964,711.36Z"/><path class="e" d="M851.69,537.66H767.87a33.15,33.15,0,0,1-31.63-23.24h0a33.15,33.15,0,0,1,31.63-43h83.82a33.15,33.15,0,0,1,31.63,23.23h0A33.15,33.15,0,0,1,851.69,537.66Z"/><g class="av"><path class="af" d="M758.18,514h0c-6.81-21.25,10.27-42.62,34.06-42.62h67c15.54,0,29.28,9.41,33.92,23.23h0c7.18,21.35-9.93,43.06-33.92,43.06h-67C776.53,537.66,762.67,528,758.18,514Z"/></g><path class="ah" d="M767.38,668.43a28.32,28.32,0,0,1-3.43-.21L649.23,653.94a27.5,27.5,0,0,1,6.8-54.58l114.71,14.28a27.5,27.5,0,0,1-3.36,54.79Z"/><circle class="ai" cx="777.23" cy="641.21" r="39.99"/><path class="f" d="M842.73,668.21h-65a27.5,27.5,0,0,1,0-55h65a27.5,27.5,0,0,1,0,55Z"/><path class="au" d="M852,621.39a62.1,62.1,0,1,0,22.74,84.84A62.1,62.1,0,0,0,852,621.39Zm-10,17.32a42.18,42.18,0,0,1,18.53,50.82l-71.8-41.45A42.17,42.17,0,0,1,842,638.71Zm-60.62,22.12,17.25,10a14.16,14.16,0,0,1,5.18,19.36l-9.95,17.25A42.19,42.19,0,0,1,781.35,660.83Zm25.22,53.92,10-17.25a14.16,14.16,0,0,1,19.36-5.18l17.25,9.95A42.19,42.19,0,0,1,806.57,714.75Z"/><path class="f" d="M871.78,672.71a32.4,32.4,0,0,1-4.33.46l-10.71.45A32.5,32.5,0,1,1,854,608.68l10.7-.45a32.51,32.51,0,0,1,7,64.48Z"/><g class="aw"><path class="c" d="M872.75,659.79a38.53,38.53,0,0,1-5.3.57l-13.11.55A39.79,39.79,0,1,1,851,581.4l13.11-.55a39.79,39.79,0,0,1,8.62,78.94Z"/></g></g><circle class="ai" cx="465" cy="627.98" r="40"/><path class="f" d="M465,655.48a27.46,27.46,0,0,1-22.2-11.25L394.6,578.42A27.5,27.5,0,0,1,439,545.91l48.21,65.82A27.5,27.5,0,0,1,465,655.48Z"/><path class="ax" d="M416.79,581.58a32.5,32.5,0,0,1-32.5-32.5V507.91a32.5,32.5,0,0,1,65,0v41.17A32.5,32.5,0,0,1,416.79,581.58Z"/><path class="ax" d="M429.93,571a12.5,12.5,0,0,1-8.54-21.63l31.84-29.78a12.5,12.5,0,1,1,17.08,18.26l-31.84,29.78A12.44,12.44,0,0,1,429.93,571Z"/><path class="p" d="M933.13,891.43A95.88,95.88,0,0,1,935,910c0,.46,0,.92,0,1.39h81.27v-20Z"/><path class="p" d="M416.36,891.43A95.1,95.1,0,0,1,418.19,910c0,.46,0,.92,0,1.39h81.27v-20Z"/><path class="ay" d="M778.22,12.9l-1.44,5.49a10,10,0,0,1-9.64,7.47L744.43,26a10,10,0,0,0-9.64,7.46l-21.35,81.5-.25-.08c-.85,8.19-8.67,15.5-19.75,17.43-13.24,2.32-26-3.9-28.44-13.89s6.26-20,19.5-22.28c8.67-1.51,17,.67,22.55,5.13l22.61-86.29A20,20,0,0,1,749.38,0l19.35.37A10,10,0,0,1,778.22,12.9Z"/><path class="az" d="M671.7,231.77c-6.06-10.66-16.78-12.48-25.26-30.59a3.9,3.9,0,0,0-3.53-2.26h0a3.91,3.91,0,0,0-3.9,3.9v76.09c-4.28-1.9-10-1.71-15.36,1-8.13,4.16-12.06,12.56-8.79,18.76s12.51,7.85,20.63,3.69c7-3.6,10.9-10.36,9.71-16.13h.24V225c2.25,0,38.34,1.58,19.68,52.35C665.12,277.37,683.48,252.45,671.7,231.77Z"/><path class="ba" d="M811.18,99.36a20,20,0,0,1,30.44,10.58l27.9,90.39-.1,0c1.86,7.76-1.2,17.45-8.72,24.83-10.35,10.17-25.09,12.07-32.93,4.25s-5.81-22.38,4.53-32.55c6.78-6.65,15.41-9.69,22.78-8.85l-17.33-56.12a10,10,0,0,0-15.22-5.29l-41.37,28.44a10,10,0,0,0-3.89,11.19l23.34,75.58c3.87,8.14,1.13,19.66-7.52,28.15-10.35,10.16-25.09,12.06-32.93,4.24s-5.82-22.39,4.53-32.55c6.68-6.55,15.16-9.61,22.47-8.9l-25.44-82.39A20,20,0,0,1,769.5,128Z"/><path class="bb" d="M792.14,127.08a2.5,2.5,0,0,1-1.41-4.56l24.7-17a12.35,12.35,0,0,1,7-2.21,12.49,12.49,0,0,1,12,8.82l.78,2.52a2.5,2.5,0,0,1-4.78,1.47l-.77-2.51a7.52,7.52,0,0,0-7.21-5.3,7.42,7.42,0,0,0-4.21,1.33l-24.7,17A2.48,2.48,0,0,1,792.14,127.08Z"/><path class="bc" d="M844.3,227.25a16.4,16.4,0,0,1-6.07-1.16,15.76,15.76,0,0,1-9.05-9.66A2.5,2.5,0,1,1,834,215a10.72,10.72,0,0,0,6.12,6.48A11.32,11.32,0,0,0,851,220a2.5,2.5,0,0,1,3,4A16,16,0,0,1,844.3,227.25Z"/><path class="bc" d="M688.5,127.38a22.12,22.12,0,0,1-7.66-1.37,18.29,18.29,0,0,1-10.77-9.89,2.5,2.5,0,0,1,4.64-1.84,13.42,13.42,0,0,0,7.86,7c4.59,1.7,9.89,1.32,13.5-1a2.5,2.5,0,1,1,2.69,4.22A19.15,19.15,0,0,1,688.5,127.38Z"/><path class="bc" d="M775.7,273.16a16.4,16.4,0,0,1-6.07-1.16,15.76,15.76,0,0,1-9-9.66,2.5,2.5,0,1,1,4.78-1.47,10.79,10.79,0,0,0,6.12,6.48,11.32,11.32,0,0,0,10.89-1.41,2.5,2.5,0,0,1,3,4A16,16,0,0,1,775.7,273.16Z"/><path class="bc" d="M627,300.44c-3.25,0-6-1.07-7.61-3.2a8.42,8.42,0,0,1-1.39-6.32,2.5,2.5,0,1,1,5,.61,3.66,3.66,0,0,0,.4,2.68c1.21,1.59,5.9,2.07,11.55-1.18a2.5,2.5,0,0,1,2.49,4.33A21.36,21.36,0,0,1,627,300.44Z"/><path class="bb" d="M764.15,16.62H744.26a2.5,2.5,0,1,1,0-5h19.89a2.5,2.5,0,0,1,0,5Z"/></svg>